<svg width="64" height="64" viewBox="0 0 64 64" fill="none" xmlns="http://www.w3.org/2000/svg">
  <rect width="64" height="64" rx="16" fill="#F4FAFF"/>
  <g fill="#2496ED">
    <rect x="12" y="28" width="7.5" height="7.5" rx="1.2"/>
    <rect x="21" y="28" width="7.5" height="7.5" rx="1.2"/>
    <rect x="30" y="28" width="7.5" height="7.5" rx="1.2"/>
    <rect x="39" y="28" width="7.5" height="7.5" rx="1.2"/>
    <rect x="21" y="19" width="7.5" height="7.5" rx="1.2"/>
    <rect x="30" y="19" width="7.5" height="7.5" rx="1.2"/>
    <rect x="39" y="19" width="7.5" height="7.5" rx="1.2"/>
    <path d="M12 38.5H46.8C46 42 42.4 45.7 37.8 47.1C29.9 49.4 20.1 47.7 15.7 41.4C14.9 40.3 13.4 38.8 12 38.5Z"/>
    <path d="M50.4 27.2C48.6 27.2 47.2 28.6 47.2 30.4C47.2 31 47.4 31.6 47.7 32.1C47.1 32.5 46.1 32.9 45.1 33H13.4C12.6 33 12 33.6 12 34.4C12 35.2 12.6 35.8 13.4 35.8H45.4C48.4 35.8 50.9 34.8 52.4 32.9C53.3 31.8 53.6 30.2 53.1 28.8C52.7 27.8 51.6 27.2 50.4 27.2Z"/>
  </g>
</svg>
