<svg width="64" height="64" viewBox="0 0 64 64" fill="none" xmlns="http://www.w3.org/2000/svg">
  <rect width="64" height="64" rx="16" fill="#FFF3EE"/>
  <path d="M40.7 18.8C38.9 16.5 35.8 15 31.9 15C25.3 15 20.9 18.6 20.9 24.1C20.9 28.6 23.9 31.1 29.8 32.5L33.5 33.4C36.6 34.1 37.8 35.2 37.8 37C37.8 39.4 35.6 41 32.3 41C28.8 41 26.1 39.7 24 37.3L19.4 41.8C22.2 45.6 26.8 47.8 32.4 47.8C39.7 47.8 44.6 43.9 44.6 37.9C44.6 33.3 41.8 30.6 35.7 29.1L32 28.2C28.8 27.4 27.6 26.5 27.6 24.8C27.6 22.6 29.6 21.2 32.4 21.2C35 21.2 36.9 22 38.5 23.9L40.7 18.8Z" fill="#FF3E00"/>
  <circle cx="42.4" cy="18" r="3.4" fill="#FFC19F"/>
</svg>
