<svg id="svgQrWrapper" viewBox="0 0 300 300" xmlns="http://www.w3.org/2000/svg" xmlns:xlink="http://www.w3.org/1999/xlink" width="300" height="300" style="width: 100%; height: 100%; background-color: rgb(255, 255, 255);"><svg fill="#36e114" xmlns="http://www.w3.org/2000/svg" width="300" height="300" viewBox="0 0 300 300"><path d="M224.88,93.12h19.39a5,5,0,0,1,5,5v18.73H254V98.12a9.68,9.68,0,0,0-9.68-9.68H224.88Z"/><path d="M50.73,116.85V98.12a5,5,0,0,1,5-5H73.8V88.44H55.73a9.68,9.68,0,0,0-9.68,9.68v18.73Z"/><path d="M73.8,291.67H55.73a5,5,0,0,1-5-5V267.94H46.05v18.73a9.68,9.68,0,0,0,9.68,9.68H73.8Z"/><path d="M249.27,267.94v18.73a5,5,0,0,1-5,5H224.88v4.68h19.39a9.68,9.68,0,0,0,9.68-9.68V267.94Z"/><path d="M244.75,3.65H55.45A9.25,9.25,0,0,0,46.2,12.9V54.46a9.25,9.25,0,0,0,9.25,9.26H126a2.32,2.32,0,0,1,1.64.67l20.74,20.74a2.33,2.33,0,0,0,3.28,0l20.75-20.74a2.28,2.28,0,0,1,1.64-.67h70.58a9.25,9.25,0,0,0,9.25-9.26V12.9A9.18,9.18,0,0,0,244.75,3.65Z"/><g transform="translate(54, 96.5)scale(0.64)" fill="none"><svg width="300" height="300"><style>.dot-color{ fill: #4fb922; }</style><defs><clipPath id="clip-path-corners-square-color-0-0"><path clip-rule="evenodd" d="M 5 5v 70h 70v -70zM 15 15h 50v 50h -50z" transform="rotate(0,40,40)"/></clipPath><linearGradient id="corners-square-color-0-0" gradientUnits="userSpaceOnUse" x1="5" y1="40" x2="75" y2="40"><stop offset="0%" stop-color="#27d332"/><stop offset="100%" stop-color="#2fe50b"/></linearGradient><clipPath id="clip-path-corners-dot-color-0-0"><circle cx="40" cy="40" r="15" transform="rotate(0,40,40)"/></clipPath><linearGradient id="corners-dot-color-0-0" gradientUnits="userSpaceOnUse" x1="25" y1="40" x2="55" y2="40"><stop offset="0%" stop-color="#54fe16"/><stop offset="100%" stop-color="#639d43"/></linearGradient><clipPath id="clip-path-corners-square-color-1-0"><path clip-rule="evenodd" d="M 225 5v 70h 70v -70zM 235 15h 50v 50h -50z" transform="rotate(90,260,40)"/></clipPath><linearGradient id="corners-square-color-1-0" gradientUnits="userSpaceOnUse" x1="260" y1="5" x2="260" y2="75"><stop offset="0%" stop-color="#27d332"/><stop offset="100%" stop-color="#2fe50b"/></linearGradient><clipPath id="clip-path-corners-dot-color-1-0"><circle cx="260" cy="40" r="15" transform="rotate(90,260,40)"/></clipPath><linearGradient id="corners-dot-color-1-0" gradientUnits="userSpaceOnUse" x1="260" y1="25" x2="260" y2="55"><stop offset="0%" stop-color="#54fe16"/><stop offset="100%" stop-color="#639d43"/></linearGradient><clipPath id="clip-path-corners-square-color-0-1"><path clip-rule="evenodd" d="M 5 225v 70h 70v -70zM 15 235h 50v 50h -50z" transform="rotate(-90,40,260)"/></clipPath><linearGradient id="corners-square-color-0-1" gradientUnits="userSpaceOnUse" x1="40" y1="295" x2="40" y2="225"><stop offset="0%" stop-color="#27d332"/><stop offset="100%" stop-color="#2fe50b"/></linearGradient><clipPath id="clip-path-corners-dot-color-0-1"><circle cx="40" cy="260" r="15" transform="rotate(-90,40,260)"/></clipPath><linearGradient id="corners-dot-color-0-1" gradientUnits="userSpaceOnUse" x1="40" y1="275" x2="40" y2="245"><stop offset="0%" stop-color="#54fe16"/><stop offset="100%" stop-color="#639d43"/></linearGradient></defs><rect x="0" y="0" height="300" width="300" clip-path="url('#clip-path-background-color')"/><g class="dot-color"><circle cx="10" cy="90" r="5" transform="rotate(0,10,90)"/><circle cx="10" cy="100" r="5" transform="rotate(0,10,100)"/><circle cx="10" cy="110" r="5" transform="rotate(0,10,110)"/><circle cx="10" cy="140" r="5" transform="rotate(0,10,140)"/><circle cx="10" cy="150" r="5" transform="rotate(0,10,150)"/><circle cx="10" cy="160" r="5" transform="rotate(0,10,160)"/><circle cx="10" cy="170" r="5" transform="rotate(0,10,170)"/><circle cx="10" cy="190" r="5" transform="rotate(0,10,190)"/><circle cx="20" cy="90" r="5" transform="rotate(0,20,90)"/><circle cx="20" cy="100" r="5" transform="rotate(0,20,100)"/><circle cx="20" cy="130" r="5" transform="rotate(0,20,130)"/><circle cx="20" cy="150" r="5" transform="rotate(0,20,150)"/><circle cx="20" cy="160" r="5" transform="rotate(0,20,160)"/><circle cx="20" cy="210" r="5" transform="rotate(0,20,210)"/><circle cx="30" cy="100" r="5" transform="rotate(0,30,100)"/><circle cx="30" cy="110" r="5" transform="rotate(0,30,110)"/><circle cx="30" cy="150" r="5" transform="rotate(0,30,150)"/><circle cx="30" cy="200" r="5" transform="rotate(0,30,200)"/><circle cx="30" cy="210" r="5" transform="rotate(0,30,210)"/><circle cx="40" cy="100" r="5" transform="rotate(0,40,100)"/><circle cx="40" cy="110" r="5" transform="rotate(0,40,110)"/><circle cx="40" cy="120" r="5" transform="rotate(0,40,120)"/><circle cx="40" cy="130" r="5" transform="rotate(0,40,130)"/><circle cx="40" cy="140" r="5" transform="rotate(0,40,140)"/><circle cx="40" cy="150" r="5" transform="rotate(0,40,150)"/><circle cx="40" cy="170" r="5" transform="rotate(0,40,170)"/><circle cx="40" cy="180" r="5" transform="rotate(0,40,180)"/><circle cx="40" cy="210" r="5" transform="rotate(0,40,210)"/><circle cx="50" cy="100" r="5" transform="rotate(0,50,100)"/><circle cx="50" cy="150" r="5" transform="rotate(0,50,150)"/><circle cx="50" cy="180" r="5" transform="rotate(0,50,180)"/><circle cx="50" cy="190" r="5" transform="rotate(0,50,190)"/><circle cx="50" cy="200" r="5" transform="rotate(0,50,200)"/><circle cx="50" cy="210" r="5" transform="rotate(0,50,210)"/><circle cx="60" cy="120" r="5" transform="rotate(0,60,120)"/><circle cx="60" cy="140" r="5" transform="rotate(0,60,140)"/><circle cx="60" cy="180" r="5" transform="rotate(0,60,180)"/><circle cx="70" cy="90" r="5" transform="rotate(0,70,90)"/><circle cx="70" cy="110" r="5" transform="rotate(0,70,110)"/><circle cx="70" cy="130" r="5" transform="rotate(0,70,130)"/><circle cx="70" cy="150" r="5" transform="rotate(0,70,150)"/><circle cx="70" cy="170" r="5" transform="rotate(0,70,170)"/><circle cx="70" cy="190" r="5" transform="rotate(0,70,190)"/><circle cx="70" cy="210" r="5" transform="rotate(0,70,210)"/><circle cx="80" cy="110" r="5" transform="rotate(0,80,110)"/><circle cx="80" cy="130" r="5" transform="rotate(0,80,130)"/><circle cx="80" cy="140" r="5" transform="rotate(0,80,140)"/><circle cx="80" cy="150" r="5" transform="rotate(0,80,150)"/><circle cx="80" cy="160" r="5" transform="rotate(0,80,160)"/><circle cx="80" cy="200" r="5" transform="rotate(0,80,200)"/><circle cx="80" cy="210" r="5" transform="rotate(0,80,210)"/><circle cx="90" cy="20" r="5" transform="rotate(0,90,20)"/><circle cx="90" cy="70" r="5" transform="rotate(0,90,70)"/><circle cx="90" cy="80" r="5" transform="rotate(0,90,80)"/><circle cx="90" cy="90" r="5" transform="rotate(0,90,90)"/><circle cx="90" cy="110" r="5" transform="rotate(0,90,110)"/><circle cx="90" cy="160" r="5" transform="rotate(0,90,160)"/><circle cx="90" cy="170" r="5" transform="rotate(0,90,170)"/><circle cx="90" cy="190" r="5" transform="rotate(0,90,190)"/><circle cx="90" cy="200" r="5" transform="rotate(0,90,200)"/><circle cx="90" cy="210" r="5" transform="rotate(0,90,210)"/><circle cx="90" cy="220" r="5" transform="rotate(0,90,220)"/><circle cx="90" cy="280" r="5" transform="rotate(0,90,280)"/><circle cx="90" cy="290" r="5" transform="rotate(0,90,290)"/><circle cx="100" cy="30" r="5" transform="rotate(0,100,30)"/><circle cx="100" cy="80" r="5" transform="rotate(0,100,80)"/><circle cx="100" cy="100" r="5" transform="rotate(0,100,100)"/><circle cx="100" cy="130" r="5" transform="rotate(0,100,130)"/><circle cx="100" cy="140" r="5" transform="rotate(0,100,140)"/><circle cx="100" cy="150" r="5" transform="rotate(0,100,150)"/><circle cx="100" cy="190" r="5" transform="rotate(0,100,190)"/><circle cx="100" cy="200" r="5" transform="rotate(0,100,200)"/><circle cx="100" cy="210" r="5" transform="rotate(0,100,210)"/><circle cx="100" cy="240" r="5" transform="rotate(0,100,240)"/><circle cx="100" cy="250" r="5" transform="rotate(0,100,250)"/><circle cx="100" cy="260" r="5" transform="rotate(0,100,260)"/><circle cx="100" cy="280" r="5" transform="rotate(0,100,280)"/><circle cx="110" cy="60" r="5" transform="rotate(0,110,60)"/><circle cx="110" cy="70" r="5" transform="rotate(0,110,70)"/><circle cx="110" cy="80" r="5" transform="rotate(0,110,80)"/><circle cx="110" cy="110" r="5" transform="rotate(0,110,110)"/><circle cx="110" cy="130" r="5" transform="rotate(0,110,130)"/><circle cx="110" cy="140" r="5" transform="rotate(0,110,140)"/><circle cx="110" cy="150" r="5" transform="rotate(0,110,150)"/><circle cx="110" cy="160" r="5" transform="rotate(0,110,160)"/><circle cx="110" cy="220" r="5" transform="rotate(0,110,220)"/><circle cx="110" cy="230" r="5" transform="rotate(0,110,230)"/><circle cx="110" cy="260" r="5" transform="rotate(0,110,260)"/><circle cx="110" cy="270" r="5" transform="rotate(0,110,270)"/><circle cx="120" cy="30" r="5" transform="rotate(0,120,30)"/><circle cx="120" cy="40" r="5" transform="rotate(0,120,40)"/><circle cx="120" cy="60" r="5" transform="rotate(0,120,60)"/><circle cx="120" cy="80" r="5" transform="rotate(0,120,80)"/><circle cx="120" cy="100" r="5" transform="rotate(0,120,100)"/><circle cx="120" cy="110" r="5" transform="rotate(0,120,110)"/><circle cx="120" cy="120" r="5" transform="rotate(0,120,120)"/><circle cx="120" cy="130" r="5" transform="rotate(0,120,130)"/><circle cx="120" cy="150" r="5" transform="rotate(0,120,150)"/><circle cx="120" cy="160" r="5" transform="rotate(0,120,160)"/><circle cx="120" cy="170" r="5" transform="rotate(0,120,170)"/><circle cx="120" cy="200" r="5" transform="rotate(0,120,200)"/><circle cx="120" cy="210" r="5" transform="rotate(0,120,210)"/><circle cx="120" cy="230" r="5" transform="rotate(0,120,230)"/><circle cx="120" cy="250" r="5" transform="rotate(0,120,250)"/><circle cx="120" cy="260" r="5" transform="rotate(0,120,260)"/><circle cx="130" cy="20" r="5" transform="rotate(0,130,20)"/><circle cx="130" cy="30" r="5" transform="rotate(0,130,30)"/><circle cx="130" cy="60" r="5" transform="rotate(0,130,60)"/><circle cx="130" cy="70" r="5" transform="rotate(0,130,70)"/><circle cx="130" cy="90" r="5" transform="rotate(0,130,90)"/><circle cx="130" cy="110" r="5" transform="rotate(0,130,110)"/><circle cx="130" cy="130" r="5" transform="rotate(0,130,130)"/><circle cx="130" cy="140" r="5" transform="rotate(0,130,140)"/><circle cx="130" cy="150" r="5" transform="rotate(0,130,150)"/><circle cx="130" cy="190" r="5" transform="rotate(0,130,190)"/><circle cx="130" cy="200" r="5" transform="rotate(0,130,200)"/><circle cx="130" cy="210" r="5" transform="rotate(0,130,210)"/><circle cx="130" cy="220" r="5" transform="rotate(0,130,220)"/><circle cx="130" cy="230" r="5" transform="rotate(0,130,230)"/><circle cx="130" cy="260" r="5" transform="rotate(0,130,260)"/><circle cx="130" cy="280" r="5" transform="rotate(0,130,280)"/><circle cx="140" cy="10" r="5" transform="rotate(0,140,10)"/><circle cx="140" cy="30" r="5" transform="rotate(0,140,30)"/><circle cx="140" cy="40" r="5" transform="rotate(0,140,40)"/><circle cx="140" cy="50" r="5" transform="rotate(0,140,50)"/><circle cx="140" cy="60" r="5" transform="rotate(0,140,60)"/><circle cx="140" cy="80" r="5" transform="rotate(0,140,80)"/><circle cx="140" cy="90" r="5" transform="rotate(0,140,90)"/><circle cx="140" cy="100" r="5" transform="rotate(0,140,100)"/><circle cx="140" cy="110" r="5" transform="rotate(0,140,110)"/><circle cx="140" cy="120" r="5" transform="rotate(0,140,120)"/><circle cx="140" cy="150" r="5" transform="rotate(0,140,150)"/><circle cx="140" cy="160" r="5" transform="rotate(0,140,160)"/><circle cx="140" cy="170" r="5" transform="rotate(0,140,170)"/><circle cx="140" cy="180" r="5" transform="rotate(0,140,180)"/><circle cx="140" cy="190" r="5" transform="rotate(0,140,190)"/><circle cx="140" cy="200" r="5" transform="rotate(0,140,200)"/><circle cx="140" cy="230" r="5" transform="rotate(0,140,230)"/><circle cx="140" cy="250" r="5" transform="rotate(0,140,250)"/><circle cx="140" cy="260" r="5" transform="rotate(0,140,260)"/><circle cx="140" cy="290" r="5" transform="rotate(0,140,290)"/><circle cx="150" cy="10" r="5" transform="rotate(0,150,10)"/><circle cx="150" cy="40" r="5" transform="rotate(0,150,40)"/><circle cx="150" cy="50" r="5" transform="rotate(0,150,50)"/><circle cx="150" cy="60" r="5" transform="rotate(0,150,60)"/><circle cx="150" cy="70" r="5" transform="rotate(0,150,70)"/><circle cx="150" cy="90" r="5" transform="rotate(0,150,90)"/><circle cx="150" cy="130" r="5" transform="rotate(0,150,130)"/><circle cx="150" cy="140" r="5" transform="rotate(0,150,140)"/><circle cx="150" cy="160" r="5" transform="rotate(0,150,160)"/><circle cx="150" cy="180" r="5" transform="rotate(0,150,180)"/><circle cx="150" cy="210" r="5" transform="rotate(0,150,210)"/><circle cx="150" cy="230" r="5" transform="rotate(0,150,230)"/><circle cx="150" cy="240" r="5" transform="rotate(0,150,240)"/><circle cx="160" cy="10" r="5" transform="rotate(0,160,10)"/><circle cx="160" cy="20" r="5" transform="rotate(0,160,20)"/><circle cx="160" cy="80" r="5" transform="rotate(0,160,80)"/><circle cx="160" cy="100" r="5" transform="rotate(0,160,100)"/><circle cx="160" cy="110" r="5" transform="rotate(0,160,110)"/><circle cx="160" cy="150" r="5" transform="rotate(0,160,150)"/><circle cx="160" cy="160" r="5" transform="rotate(0,160,160)"/><circle cx="160" cy="180" r="5" transform="rotate(0,160,180)"/><circle cx="160" cy="190" r="5" transform="rotate(0,160,190)"/><circle cx="160" cy="210" r="5" transform="rotate(0,160,210)"/><circle cx="160" cy="220" r="5" transform="rotate(0,160,220)"/><circle cx="160" cy="250" r="5" transform="rotate(0,160,250)"/><circle cx="160" cy="260" r="5" transform="rotate(0,160,260)"/><circle cx="160" cy="270" r="5" transform="rotate(0,160,270)"/><circle cx="160" cy="280" r="5" transform="rotate(0,160,280)"/><circle cx="170" cy="60" r="5" transform="rotate(0,170,60)"/><circle cx="170" cy="70" r="5" transform="rotate(0,170,70)"/><circle cx="170" cy="80" r="5" transform="rotate(0,170,80)"/><circle cx="170" cy="110" r="5" transform="rotate(0,170,110)"/><circle cx="170" cy="140" r="5" transform="rotate(0,170,140)"/><circle cx="170" cy="150" r="5" transform="rotate(0,170,150)"/><circle cx="170" cy="160" r="5" transform="rotate(0,170,160)"/><circle cx="170" cy="170" r="5" transform="rotate(0,170,170)"/><circle cx="170" cy="210" r="5" transform="rotate(0,170,210)"/><circle cx="170" cy="240" r="5" transform="rotate(0,170,240)"/><circle cx="170" cy="260" r="5" transform="rotate(0,170,260)"/><circle cx="170" cy="270" r="5" transform="rotate(0,170,270)"/><circle cx="170" cy="280" r="5" transform="rotate(0,170,280)"/><circle cx="180" cy="10" r="5" transform="rotate(0,180,10)"/><circle cx="180" cy="20" r="5" transform="rotate(0,180,20)"/><circle cx="180" cy="40" r="5" transform="rotate(0,180,40)"/><circle cx="180" cy="80" r="5" transform="rotate(0,180,80)"/><circle cx="180" cy="100" r="5" transform="rotate(0,180,100)"/><circle cx="180" cy="120" r="5" transform="rotate(0,180,120)"/><circle cx="180" cy="150" r="5" transform="rotate(0,180,150)"/><circle cx="180" cy="180" r="5" transform="rotate(0,180,180)"/><circle cx="180" cy="190" r="5" transform="rotate(0,180,190)"/><circle cx="180" cy="200" r="5" transform="rotate(0,180,200)"/><circle cx="180" cy="210" r="5" transform="rotate(0,180,210)"/><circle cx="180" cy="230" r="5" transform="rotate(0,180,230)"/><circle cx="180" cy="240" r="5" transform="rotate(0,180,240)"/><circle cx="180" cy="250" r="5" transform="rotate(0,180,250)"/><circle cx="180" cy="260" r="5" transform="rotate(0,180,260)"/><circle cx="180" cy="270" r="5" transform="rotate(0,180,270)"/><circle cx="180" cy="290" r="5" transform="rotate(0,180,290)"/><circle cx="190" cy="10" r="5" transform="rotate(0,190,10)"/><circle cx="190" cy="20" r="5" transform="rotate(0,190,20)"/><circle cx="190" cy="30" r="5" transform="rotate(0,190,30)"/><circle cx="190" cy="40" r="5" transform="rotate(0,190,40)"/><circle cx="190" cy="60" r="5" transform="rotate(0,190,60)"/><circle cx="190" cy="70" r="5" transform="rotate(0,190,70)"/><circle cx="190" cy="80" r="5" transform="rotate(0,190,80)"/><circle cx="190" cy="90" r="5" transform="rotate(0,190,90)"/><circle cx="190" cy="110" r="5" transform="rotate(0,190,110)"/><circle cx="190" cy="140" r="5" transform="rotate(0,190,140)"/><circle cx="190" cy="160" r="5" transform="rotate(0,190,160)"/><circle cx="190" cy="180" r="5" transform="rotate(0,190,180)"/><circle cx="190" cy="200" r="5" transform="rotate(0,190,200)"/><circle cx="190" cy="210" r="5" transform="rotate(0,190,210)"/><circle cx="190" cy="250" r="5" transform="rotate(0,190,250)"/><circle cx="190" cy="270" r="5" transform="rotate(0,190,270)"/><circle cx="190" cy="290" r="5" transform="rotate(0,190,290)"/><circle cx="200" cy="10" r="5" transform="rotate(0,200,10)"/><circle cx="200" cy="30" r="5" transform="rotate(0,200,30)"/><circle cx="200" cy="40" r="5" transform="rotate(0,200,40)"/><circle cx="200" cy="60" r="5" transform="rotate(0,200,60)"/><circle cx="200" cy="100" r="5" transform="rotate(0,200,100)"/><circle cx="200" cy="110" r="5" transform="rotate(0,200,110)"/><circle cx="200" cy="120" r="5" transform="rotate(0,200,120)"/><circle cx="200" cy="220" r="5" transform="rotate(0,200,220)"/><circle cx="200" cy="230" r="5" transform="rotate(0,200,230)"/><circle cx="200" cy="250" r="5" transform="rotate(0,200,250)"/><circle cx="210" cy="10" r="5" transform="rotate(0,210,10)"/><circle cx="210" cy="30" r="5" transform="rotate(0,210,30)"/><circle cx="210" cy="60" r="5" transform="rotate(0,210,60)"/><circle cx="210" cy="70" r="5" transform="rotate(0,210,70)"/><circle cx="210" cy="80" r="5" transform="rotate(0,210,80)"/><circle cx="210" cy="100" r="5" transform="rotate(0,210,100)"/><circle cx="210" cy="130" r="5" transform="rotate(0,210,130)"/><circle cx="210" cy="140" r="5" transform="rotate(0,210,140)"/><circle cx="210" cy="160" r="5" transform="rotate(0,210,160)"/><circle cx="210" cy="180" r="5" transform="rotate(0,210,180)"/><circle cx="210" cy="210" r="5" transform="rotate(0,210,210)"/><circle cx="210" cy="220" r="5" transform="rotate(0,210,220)"/><circle cx="210" cy="230" r="5" transform="rotate(0,210,230)"/><circle cx="210" cy="240" r="5" transform="rotate(0,210,240)"/><circle cx="210" cy="250" r="5" transform="rotate(0,210,250)"/><circle cx="210" cy="270" r="5" transform="rotate(0,210,270)"/><circle cx="210" cy="290" r="5" transform="rotate(0,210,290)"/><circle cx="220" cy="90" r="5" transform="rotate(0,220,90)"/><circle cx="220" cy="130" r="5" transform="rotate(0,220,130)"/><circle cx="220" cy="160" r="5" transform="rotate(0,220,160)"/><circle cx="220" cy="170" r="5" transform="rotate(0,220,170)"/><circle cx="220" cy="200" r="5" transform="rotate(0,220,200)"/><circle cx="220" cy="210" r="5" transform="rotate(0,220,210)"/><circle cx="220" cy="250" r="5" transform="rotate(0,220,250)"/><circle cx="220" cy="260" r="5" transform="rotate(0,220,260)"/><circle cx="220" cy="270" r="5" transform="rotate(0,220,270)"/><circle cx="230" cy="90" r="5" transform="rotate(0,230,90)"/><circle cx="230" cy="130" r="5" transform="rotate(0,230,130)"/><circle cx="230" cy="150" r="5" transform="rotate(0,230,150)"/><circle cx="230" cy="160" r="5" transform="rotate(0,230,160)"/><circle cx="230" cy="190" r="5" transform="rotate(0,230,190)"/><circle cx="230" cy="200" r="5" transform="rotate(0,230,200)"/><circle cx="230" cy="210" r="5" transform="rotate(0,230,210)"/><circle cx="230" cy="230" r="5" transform="rotate(0,230,230)"/><circle cx="230" cy="250" r="5" transform="rotate(0,230,250)"/><circle cx="240" cy="110" r="5" transform="rotate(0,240,110)"/><circle cx="240" cy="140" r="5" transform="rotate(0,240,140)"/><circle cx="240" cy="160" r="5" transform="rotate(0,240,160)"/><circle cx="240" cy="200" r="5" transform="rotate(0,240,200)"/><circle cx="240" cy="210" r="5" transform="rotate(0,240,210)"/><circle cx="240" cy="250" r="5" transform="rotate(0,240,250)"/><circle cx="240" cy="260" r="5" transform="rotate(0,240,260)"/><circle cx="240" cy="290" r="5" transform="rotate(0,240,290)"/><circle cx="250" cy="100" r="5" transform="rotate(0,250,100)"/><circle cx="250" cy="160" r="5" transform="rotate(0,250,160)"/><circle cx="250" cy="170" r="5" transform="rotate(0,250,170)"/><circle cx="250" cy="180" r="5" transform="rotate(0,250,180)"/><circle cx="250" cy="190" r="5" transform="rotate(0,250,190)"/><circle cx="250" cy="200" r="5" transform="rotate(0,250,200)"/><circle cx="250" cy="210" r="5" transform="rotate(0,250,210)"/><circle cx="250" cy="220" r="5" transform="rotate(0,250,220)"/><circle cx="250" cy="230" r="5" transform="rotate(0,250,230)"/><circle cx="250" cy="240" r="5" transform="rotate(0,250,240)"/><circle cx="250" cy="250" r="5" transform="rotate(0,250,250)"/><circle cx="260" cy="100" r="5" transform="rotate(0,260,100)"/><circle cx="260" cy="120" r="5" transform="rotate(0,260,120)"/><circle cx="260" cy="130" r="5" transform="rotate(0,260,130)"/><circle cx="260" cy="170" r="5" transform="rotate(0,260,170)"/><circle cx="260" cy="200" r="5" transform="rotate(0,260,200)"/><circle cx="260" cy="210" r="5" transform="rotate(0,260,210)"/><circle cx="260" cy="240" r="5" transform="rotate(0,260,240)"/><circle cx="260" cy="260" r="5" transform="rotate(0,260,260)"/><circle cx="260" cy="270" r="5" transform="rotate(0,260,270)"/><circle cx="260" cy="280" r="5" transform="rotate(0,260,280)"/><circle cx="270" cy="100" r="5" transform="rotate(0,270,100)"/><circle cx="270" cy="110" r="5" transform="rotate(0,270,110)"/><circle cx="270" cy="120" r="5" transform="rotate(0,270,120)"/><circle cx="270" cy="130" r="5" transform="rotate(0,270,130)"/><circle cx="270" cy="190" r="5" transform="rotate(0,270,190)"/><circle cx="270" cy="200" r="5" transform="rotate(0,270,200)"/><circle cx="270" cy="210" r="5" transform="rotate(0,270,210)"/><circle cx="270" cy="220" r="5" transform="rotate(0,270,220)"/><circle cx="270" cy="230" r="5" transform="rotate(0,270,230)"/><circle cx="270" cy="240" r="5" transform="rotate(0,270,240)"/><circle cx="270" cy="250" r="5" transform="rotate(0,270,250)"/><circle cx="270" cy="260" r="5" transform="rotate(0,270,260)"/><circle cx="270" cy="270" r="5" transform="rotate(0,270,270)"/><circle cx="270" cy="280" r="5" transform="rotate(0,270,280)"/><circle cx="280" cy="90" r="5" transform="rotate(0,280,90)"/><circle cx="280" cy="100" r="5" transform="rotate(0,280,100)"/><circle cx="280" cy="130" r="5" transform="rotate(0,280,130)"/><circle cx="280" cy="140" r="5" transform="rotate(0,280,140)"/><circle cx="280" cy="150" r="5" transform="rotate(0,280,150)"/><circle cx="280" cy="160" r="5" transform="rotate(0,280,160)"/><circle cx="280" cy="200" r="5" transform="rotate(0,280,200)"/><circle cx="280" cy="220" r="5" transform="rotate(0,280,220)"/><circle cx="280" cy="230" r="5" transform="rotate(0,280,230)"/><circle cx="280" cy="250" r="5" transform="rotate(0,280,250)"/><circle cx="280" cy="260" r="5" transform="rotate(0,280,260)"/><circle cx="280" cy="270" r="5" transform="rotate(0,280,270)"/><circle cx="280" cy="290" r="5" transform="rotate(0,280,290)"/><circle cx="290" cy="100" r="5" transform="rotate(0,290,100)"/><circle cx="290" cy="130" r="5" transform="rotate(0,290,130)"/><circle cx="290" cy="140" r="5" transform="rotate(0,290,140)"/><circle cx="290" cy="170" r="5" transform="rotate(0,290,170)"/><circle cx="290" cy="180" r="5" transform="rotate(0,290,180)"/><circle cx="290" cy="220" r="5" transform="rotate(0,290,220)"/><circle cx="290" cy="230" r="5" transform="rotate(0,290,230)"/><circle cx="290" cy="250" r="5" transform="rotate(0,290,250)"/><circle cx="290" cy="270" r="5" transform="rotate(0,290,270)"/></g><g class="green-dots"/><rect x="5" y="5" height="70" width="70" clip-path="url('#clip-path-corners-square-color-0-0')" fill="url('#corners-square-color-0-0')"/><rect x="25" y="25" height="30" width="30" clip-path="url('#clip-path-corners-dot-color-0-0')" fill="url('#corners-dot-color-0-0')"/><rect x="225" y="5" height="70" width="70" clip-path="url('#clip-path-corners-square-color-1-0')" fill="url('#corners-square-color-1-0')"/><rect x="245" y="25" height="30" width="30" clip-path="url('#clip-path-corners-dot-color-1-0')" fill="url('#corners-dot-color-1-0')"/><rect x="5" y="225" height="70" width="70" clip-path="url('#clip-path-corners-square-color-0-1')" fill="url('#corners-square-color-0-1')"/><rect x="25" y="245" height="30" width="30" clip-path="url('#clip-path-corners-dot-color-0-1')" fill="url('#corners-dot-color-0-1')"/></svg></g></svg><g transform="translate(150,50)"><style>
          .small671{
            fill:#ffffff;
            font-size:34px;
            font-family: Roboto, sans-serif;
          }
        </style><text x="0" y="-7" text-anchor="middle" class="small671">SCAN ME</text></g></svg>